# xmcd
#
# Track frame offsets: 
#        150
#        21403
#        40976
#        62645
#        80035
#        97600
#        120470
#        140015
#        156839
#        178126
#
# Disc length: 2630 seconds
#
# Revision: 0
# Processed by: cddbd v1.5.2PL0 Copyright (c) Steve Scherf et al.
# Submitted via: ExactAudioCopy v1.0b3
#
DISCID=820a440a
DTITLE=Elita 5 - Bardh e Zi
DYEAR=2004
DGENRE=Rock Shq
TTITLE0=Faleminderit
TTITLE1=Ani Moj E Mëjra
TTITLE2=Ah t`isha me i ri
TTITLE3=Bardh e Zi
TTITLE4=Parajsa dhe Ferri
TTITLE5=Fat në Fatkeqesi
TTITLE6=Karavanët Kalojn
TTITLE7=Cila je
TTITLE8=Rastet kan Fuqi
TTITLE9=Sot ketu, Neser Atje
EXTD=
EXTT0=
EXTT1=
EXTT2=
EXTT3=
EXTT4=
EXTT5=
EXTT6=
EXTT7=
EXTT8=
EXTT9=
PLAYORDER=
